<svg xmlns="http://www.w3.org/2000/svg" viewBox="0 0 1636 389" width="1636" height="389">
  <path d="M 1136.00,356.00 L 1136.00,359.00 L 1137.00,361.00 L 1140.00,364.00 L 1141.00,364.00 Z M 1066.00,333.00 L 1064.00,332.00 L 1050.00,332.00 L 1050.00,333.00 L 1062.00,333.00 L 1067.00,337.00 L 1068.00,339.00 L 1068.00,344.00 L 1065.00,348.00 L 1061.00,350.00 L 1047.00,350.00 L 1044.00,346.00 L 1044.00,339.00 L 1043.00,338.00 L 1043.00,336.00 L 1047.00,332.00 L 1043.00,332.00 L 1042.00,333.00 L 1043.00,335.00 L 1043.00,341.00 L 1042.00,342.00 L 1042.00,365.00 L 1043.00,366.00 L 1044.00,365.00 L 1044.00,354.00 L 1047.00,352.00 L 1063.00,352.00 L 1065.00,351.00 L 1070.00,346.00 L 1070.00,337.00 Z M 862.00,332.00 L 861.00,333.00 L 861.00,337.00 L 859.00,339.00 L 857.00,343.00 L 857.00,345.00 L 853.00,352.00 L 852.00,358.00 L 851.00,359.00 L 851.00,361.00 L 849.00,365.00 L 851.00,365.00 L 852.00,364.00 L 853.00,360.00 L 856.00,357.00 L 861.00,357.00 L 862.00,358.00 L 871.00,357.00 L 875.00,361.00 L 876.00,365.00 L 878.00,366.00 L 878.00,362.00 L 876.00,359.00 L 876.00,356.00 L 868.00,340.00 L 868.00,343.00 L 871.00,349.00 L 871.00,355.00 L 870.00,356.00 L 859.00,356.00 L 857.00,354.00 L 857.00,348.00 L 860.00,343.00 L 860.00,339.00 L 863.00,335.00 L 865.00,335.00 L 866.00,334.00 L 865.00,332.00 Z M 1593.00,331.00 L 1588.00,334.00 L 1586.00,338.00 L 1586.00,343.00 L 1590.00,347.00 L 1592.00,348.00 L 1596.00,348.00 L 1597.00,349.00 L 1603.00,349.00 L 1607.00,351.00 L 1611.00,355.00 L 1611.00,359.00 L 1606.00,364.00 L 1604.00,365.00 L 1594.00,364.00 L 1592.00,363.00 L 1588.00,359.00 L 1586.00,359.00 L 1586.00,361.00 L 1592.00,366.00 L 1594.00,366.00 L 1595.00,367.00 L 1604.00,367.00 L 1605.00,366.00 L 1607.00,366.00 L 1609.00,364.00 L 1610.00,364.00 L 1613.00,360.00 L 1613.00,354.00 L 1612.00,352.00 L 1610.00,350.00 L 1608.00,350.00 L 1605.00,348.00 L 1602.00,348.00 L 1601.00,347.00 L 1596.00,347.00 L 1592.00,345.00 L 1589.00,342.00 L 1589.00,337.00 L 1594.00,333.00 L 1596.00,333.00 L 1597.00,332.00 L 1603.00,332.00 L 1610.00,337.00 L 1611.00,335.00 L 1607.00,332.00 L 1603.00,332.00 L 1602.00,331.00 Z M 1542.00,331.00 L 1538.00,331.00 L 1537.00,332.00 L 1533.00,332.00 L 1532.00,331.00 L 1531.00,332.00 L 1513.00,332.00 L 1512.00,331.00 L 1510.00,331.00 L 1509.00,332.00 L 1510.00,333.00 L 1521.00,333.00 L 1523.00,334.00 L 1525.00,337.00 L 1524.00,339.00 L 1524.00,342.00 L 1525.00,343.00 L 1525.00,345.00 L 1524.00,346.00 L 1524.00,366.00 L 1525.00,367.00 L 1527.00,366.00 L 1527.00,336.00 L 1530.00,333.00 L 1539.00,333.00 L 1541.00,334.00 L 1542.00,333.00 Z M 1381.00,332.00 L 1379.00,331.00 L 1378.00,333.00 L 1378.00,335.00 L 1379.00,336.00 L 1379.00,348.00 L 1378.00,349.00 L 1378.00,355.00 L 1373.00,362.00 L 1367.00,365.00 L 1361.00,365.00 L 1355.00,362.00 L 1351.00,358.00 L 1350.00,356.00 L 1350.00,350.00 L 1349.00,349.00 L 1350.00,347.00 L 1350.00,335.00 L 1351.00,333.00 L 1349.00,332.00 L 1348.00,333.00 L 1349.00,335.00 L 1349.00,355.00 L 1350.00,356.00 L 1350.00,359.00 L 1351.00,361.00 L 1352.00,361.00 L 1355.00,364.00 L 1359.00,366.00 L 1361.00,366.00 L 1362.00,367.00 L 1364.00,367.00 L 1365.00,366.00 L 1370.00,366.00 L 1376.00,363.00 L 1380.00,359.00 L 1380.00,354.00 L 1381.00,353.00 Z M 1272.00,331.00 L 1271.00,332.00 L 1271.00,353.00 L 1272.00,354.00 L 1272.00,360.00 L 1271.00,361.00 L 1271.00,365.00 L 1272.00,366.00 L 1274.00,366.00 L 1275.00,365.00 L 1277.00,366.00 L 1284.00,366.00 L 1285.00,365.00 L 1291.00,365.00 L 1299.00,361.00 L 1299.00,360.00 L 1302.00,357.00 L 1302.00,355.00 L 1303.00,354.00 L 1303.00,342.00 L 1300.00,338.00 L 1300.00,337.00 L 1293.00,332.00 L 1289.00,332.00 L 1288.00,331.00 L 1277.00,331.00 L 1276.00,332.00 L 1274.00,332.00 Z M 1275.00,334.00 L 1280.00,334.00 L 1281.00,333.00 L 1285.00,333.00 L 1286.00,334.00 L 1292.00,334.00 L 1299.00,340.00 L 1300.00,344.00 L 1301.00,345.00 L 1301.00,351.00 L 1300.00,352.00 L 1300.00,354.00 L 1298.00,358.00 L 1292.00,363.00 L 1290.00,364.00 L 1276.00,364.00 L 1274.00,362.00 L 1273.00,360.00 L 1273.00,337.00 Z M 1198.00,332.00 L 1193.00,336.00 L 1192.00,336.00 L 1188.00,344.00 L 1188.00,355.00 L 1190.00,359.00 L 1194.00,363.00 L 1202.00,367.00 L 1212.00,367.00 L 1218.00,364.00 L 1223.00,359.00 L 1224.00,355.00 L 1225.00,354.00 L 1225.00,346.00 L 1224.00,345.00 L 1224.00,343.00 L 1222.00,339.00 L 1220.00,337.00 L 1220.00,336.00 L 1219.00,336.00 L 1216.00,333.00 L 1214.00,333.00 L 1213.00,332.00 L 1210.00,332.00 L 1209.00,331.00 L 1201.00,331.00 L 1200.00,332.00 Z M 1200.00,333.00 L 1203.00,333.00 L 1204.00,332.00 L 1209.00,332.00 L 1210.00,333.00 L 1212.00,333.00 L 1216.00,335.00 L 1222.00,341.00 L 1223.00,343.00 L 1223.00,352.00 L 1221.00,356.00 L 1215.00,362.00 L 1211.00,364.00 L 1202.00,364.00 L 1201.00,363.00 L 1199.00,363.00 L 1192.00,357.00 L 1190.00,353.00 L 1190.00,351.00 L 1189.00,350.00 L 1190.00,344.00 L 1192.00,340.00 L 1198.00,334.00 Z M 1138.00,332.00 L 1136.00,332.00 L 1135.00,331.00 L 1116.00,331.00 L 1115.00,332.00 L 1115.00,341.00 L 1116.00,342.00 L 1116.00,345.00 L 1115.00,346.00 L 1115.00,348.00 L 1116.00,349.00 L 1116.00,352.00 L 1115.00,353.00 L 1115.00,364.00 L 1116.00,365.00 L 1117.00,365.00 L 1117.00,362.00 L 1118.00,361.00 L 1117.00,360.00 L 1118.00,353.00 L 1120.00,351.00 L 1129.00,351.00 L 1133.00,353.00 L 1134.00,352.00 L 1134.00,351.00 L 1132.00,350.00 L 1120.00,350.00 L 1118.00,348.00 L 1118.00,336.00 L 1122.00,333.00 L 1125.00,333.00 L 1126.00,334.00 L 1127.00,333.00 L 1130.00,333.00 L 1131.00,334.00 L 1137.00,334.00 L 1141.00,339.00 L 1141.00,345.00 L 1138.00,348.00 L 1138.00,349.00 L 1140.00,348.00 L 1142.00,345.00 L 1142.00,337.00 Z M 923.00,331.00 L 922.00,332.00 L 922.00,338.00 L 923.00,339.00 L 923.00,354.00 L 924.00,355.00 L 924.00,357.00 L 923.00,358.00 L 923.00,365.00 L 936.00,365.00 L 937.00,366.00 L 942.00,365.00 L 944.00,366.00 L 944.00,365.00 L 928.00,365.00 L 925.00,363.00 L 925.00,361.00 L 924.00,360.00 L 924.00,345.00 L 925.00,344.00 L 925.00,332.00 Z M 778.00,331.00 L 777.00,332.00 L 778.00,333.00 L 787.00,333.00 L 788.00,334.00 L 790.00,334.00 L 792.00,336.00 L 792.00,341.00 L 793.00,342.00 L 792.00,344.00 L 792.00,365.00 L 794.00,366.00 L 795.00,365.00 L 795.00,363.00 L 794.00,362.00 L 794.00,336.00 L 796.00,334.00 L 798.00,334.00 L 799.00,333.00 L 809.00,333.00 L 809.00,331.00 Z M 730.00,331.00 L 729.00,333.00 L 730.00,335.00 L 730.00,338.00 L 729.00,339.00 L 730.00,341.00 L 730.00,347.00 L 729.00,348.00 L 729.00,351.00 L 730.00,352.00 L 730.00,365.00 L 732.00,365.00 L 732.00,335.00 L 733.00,333.00 L 732.00,331.00 Z M 657.00,332.00 L 653.00,334.00 L 648.00,339.00 L 647.00,341.00 L 647.00,343.00 L 645.00,347.00 L 645.00,350.00 L 646.00,351.00 L 647.00,357.00 L 652.00,363.00 L 653.00,363.00 L 655.00,365.00 L 657.00,365.00 L 661.00,367.00 L 668.00,367.00 L 671.00,365.00 L 673.00,365.00 L 677.00,363.00 L 682.00,358.00 L 682.00,352.00 L 683.00,351.00 L 682.00,350.00 L 679.00,350.00 L 679.00,351.00 L 681.00,353.00 L 681.00,355.00 L 679.00,357.00 L 679.00,358.00 L 675.00,362.00 L 671.00,363.00 L 670.00,364.00 L 668.00,364.00 L 667.00,365.00 L 662.00,365.00 L 661.00,364.00 L 657.00,363.00 L 650.00,356.00 L 647.00,350.00 L 647.00,346.00 L 648.00,345.00 L 648.00,343.00 L 654.00,335.00 L 658.00,333.00 L 662.00,333.00 L 664.00,332.00 L 665.00,333.00 L 670.00,333.00 L 671.00,334.00 L 674.00,334.00 L 678.00,338.00 L 680.00,338.00 L 675.00,333.00 L 673.00,332.00 L 669.00,332.00 L 668.00,331.00 L 662.00,331.00 L 661.00,332.00 Z M 598.00,331.00 L 597.00,332.00 L 597.00,358.00 L 598.00,359.00 L 597.00,363.00 L 598.00,365.00 L 599.00,365.00 L 599.00,334.00 L 600.00,333.00 Z M 519.00,332.00 L 519.00,335.00 L 520.00,336.00 L 520.00,361.00 L 519.00,363.00 L 521.00,366.00 L 539.00,366.00 L 540.00,365.00 L 544.00,364.00 L 549.00,359.00 L 551.00,355.00 L 551.00,352.00 L 552.00,351.00 L 552.00,345.00 L 551.00,344.00 L 551.00,341.00 L 548.00,337.00 L 548.00,336.00 L 541.00,332.00 L 537.00,332.00 L 536.00,331.00 L 521.00,331.00 Z M 524.00,334.00 L 526.00,333.00 L 540.00,334.00 L 544.00,336.00 L 549.00,343.00 L 549.00,353.00 L 548.00,354.00 L 548.00,356.00 L 542.00,362.00 L 540.00,363.00 L 537.00,363.00 L 536.00,364.00 L 525.00,364.00 L 522.00,361.00 L 522.00,359.00 L 521.00,358.00 L 521.00,337.00 Z M 1437.00,332.00 L 1433.00,335.00 L 1432.00,335.00 L 1430.00,337.00 L 1428.00,341.00 L 1428.00,344.00 L 1427.00,345.00 L 1427.00,352.00 L 1428.00,353.00 L 1428.00,356.00 L 1429.00,358.00 L 1432.00,361.00 L 1432.00,362.00 L 1442.00,367.00 L 1451.00,367.00 L 1452.00,366.00 L 1457.00,365.00 L 1459.00,363.00 L 1460.00,363.00 L 1463.00,359.00 L 1463.00,357.00 L 1459.00,359.00 L 1455.00,363.00 L 1453.00,364.00 L 1445.00,365.00 L 1444.00,364.00 L 1441.00,364.00 L 1437.00,362.00 L 1431.00,356.00 L 1429.00,352.00 L 1429.00,345.00 L 1431.00,343.00 L 1432.00,340.00 L 1439.00,334.00 L 1442.00,334.00 L 1443.00,333.00 L 1450.00,333.00 L 1451.00,334.00 L 1454.00,334.00 L 1462.00,339.00 L 1460.00,335.00 L 1452.00,331.00 L 1444.00,330.00 L 1443.00,331.00 Z M 161.00,298.00 L 159.00,297.00 L 146.00,284.00 L 145.00,284.00 L 144.00,282.00 L 135.00,273.00 L 135.00,272.00 L 132.00,269.00 L 131.00,269.00 L 126.00,264.00 L 123.00,264.00 L 58.00,329.00 L 58.00,330.00 L 56.00,331.00 L 50.00,337.00 L 50.00,338.00 L 48.00,339.00 L 36.00,351.00 L 36.00,352.00 L 29.00,358.00 L 29.00,359.00 L 24.00,364.00 L 24.00,366.00 L 28.00,366.00 L 29.00,367.00 L 92.00,367.00 L 93.00,366.00 L 95.00,366.00 L 97.00,364.00 L 98.00,364.00 L 100.00,362.00 L 100.00,361.00 L 107.00,354.00 L 108.00,354.00 L 108.00,353.00 L 110.00,351.00 L 111.00,351.00 L 111.00,350.00 L 128.00,333.00 L 128.00,332.00 L 130.00,331.00 L 161.00,300.00 Z M 251.00,298.00 L 251.00,301.00 L 263.00,313.00 L 263.00,314.00 L 265.00,316.00 L 266.00,316.00 L 279.00,329.00 L 279.00,330.00 L 315.00,366.00 L 320.00,366.00 L 321.00,367.00 L 382.00,367.00 L 383.00,366.00 L 386.00,366.00 L 387.00,367.00 L 388.00,366.00 L 388.00,365.00 L 357.00,334.00 L 357.00,333.00 L 355.00,332.00 L 354.00,330.00 L 350.00,326.00 L 349.00,326.00 L 287.00,263.00 L 286.00,263.00 L 277.00,272.00 L 276.00,272.00 L 275.00,274.00 L 270.00,279.00 L 269.00,279.00 L 269.00,280.00 Z M 1453.00,92.00 L 1452.00,93.00 L 1453.00,95.00 L 1453.00,97.00 L 1452.00,98.00 L 1452.00,264.00 L 1455.00,266.00 L 1473.00,266.00 L 1474.00,265.00 L 1477.00,265.00 L 1477.00,128.00 L 1478.00,127.00 L 1480.00,127.00 L 1485.00,133.00 L 1487.00,137.00 L 1494.00,145.00 L 1496.00,149.00 L 1504.00,158.00 L 1504.00,159.00 L 1509.00,165.00 L 1509.00,166.00 L 1511.00,167.00 L 1512.00,170.00 L 1517.00,176.00 L 1517.00,177.00 L 1519.00,178.00 L 1523.00,183.00 L 1524.00,186.00 L 1530.00,193.00 L 1532.00,197.00 L 1536.00,201.00 L 1536.00,202.00 L 1538.00,203.00 L 1539.00,206.00 L 1544.00,212.00 L 1544.00,213.00 L 1547.00,215.00 L 1550.00,221.00 L 1556.00,227.00 L 1557.00,230.00 L 1560.00,233.00 L 1560.00,234.00 L 1563.00,237.00 L 1563.00,238.00 L 1566.00,241.00 L 1566.00,242.00 L 1569.00,245.00 L 1569.00,246.00 L 1577.00,255.00 L 1580.00,261.00 L 1584.00,265.00 L 1586.00,265.00 L 1587.00,266.00 L 1609.00,266.00 L 1610.00,265.00 L 1613.00,265.00 L 1614.00,264.00 L 1614.00,250.00 L 1613.00,249.00 L 1613.00,244.00 L 1614.00,243.00 L 1614.00,93.00 L 1613.00,93.00 L 1612.00,91.00 L 1590.00,91.00 L 1589.00,93.00 L 1590.00,95.00 L 1590.00,108.00 L 1589.00,109.00 L 1589.00,133.00 L 1590.00,134.00 L 1590.00,145.00 L 1589.00,146.00 L 1589.00,170.00 L 1590.00,171.00 L 1590.00,186.00 L 1589.00,187.00 L 1589.00,193.00 L 1590.00,194.00 L 1590.00,212.00 L 1589.00,213.00 L 1589.00,218.00 L 1590.00,219.00 L 1590.00,227.00 L 1588.00,229.00 L 1587.00,229.00 L 1583.00,224.00 L 1582.00,221.00 L 1579.00,219.00 L 1579.00,218.00 L 1575.00,214.00 L 1573.00,210.00 L 1567.00,203.00 L 1564.00,197.00 L 1558.00,191.00 L 1555.00,185.00 L 1548.00,178.00 L 1544.00,171.00 L 1539.00,166.00 L 1536.00,160.00 L 1529.00,153.00 L 1526.00,147.00 L 1521.00,142.00 L 1517.00,135.00 L 1511.00,129.00 L 1507.00,122.00 L 1500.00,114.00 L 1500.00,113.00 L 1497.00,110.00 L 1495.00,106.00 L 1489.00,100.00 L 1486.00,94.00 L 1482.00,91.00 L 1462.00,91.00 L 1461.00,90.00 L 1458.00,90.00 L 1457.00,91.00 Z M 1221.00,90.00 L 1220.00,91.00 L 1220.00,94.00 L 1219.00,95.00 L 1219.00,101.00 L 1220.00,102.00 L 1220.00,106.00 L 1219.00,107.00 L 1219.00,121.00 L 1220.00,122.00 L 1220.00,133.00 L 1219.00,134.00 L 1219.00,137.00 L 1220.00,138.00 L 1219.00,140.00 L 1219.00,145.00 L 1220.00,146.00 L 1220.00,152.00 L 1219.00,153.00 L 1219.00,158.00 L 1220.00,159.00 L 1220.00,187.00 L 1219.00,189.00 L 1220.00,190.00 L 1220.00,193.00 L 1219.00,195.00 L 1220.00,196.00 L 1220.00,204.00 L 1221.00,205.00 L 1222.00,211.00 L 1223.00,212.00 L 1223.00,217.00 L 1225.00,219.00 L 1225.00,222.00 L 1229.00,230.00 L 1231.00,232.00 L 1232.00,235.00 L 1236.00,239.00 L 1238.00,243.00 L 1244.00,249.00 L 1247.00,250.00 L 1248.00,252.00 L 1251.00,253.00 L 1253.00,256.00 L 1256.00,256.00 L 1260.00,259.00 L 1264.00,260.00 L 1266.00,262.00 L 1268.00,262.00 L 1269.00,263.00 L 1273.00,263.00 L 1276.00,265.00 L 1288.00,266.00 L 1289.00,267.00 L 1297.00,267.00 L 1298.00,268.00 L 1309.00,268.00 L 1310.00,267.00 L 1314.00,267.00 L 1315.00,266.00 L 1322.00,266.00 L 1323.00,265.00 L 1328.00,265.00 L 1332.00,263.00 L 1335.00,263.00 L 1342.00,259.00 L 1344.00,259.00 L 1347.00,256.00 L 1351.00,255.00 L 1353.00,253.00 L 1354.00,253.00 L 1356.00,250.00 L 1359.00,249.00 L 1360.00,247.00 L 1362.00,247.00 L 1363.00,245.00 L 1365.00,243.00 L 1366.00,243.00 L 1366.00,242.00 L 1369.00,239.00 L 1369.00,237.00 L 1371.00,236.00 L 1375.00,231.00 L 1375.00,228.00 L 1377.00,226.00 L 1378.00,224.00 L 1378.00,221.00 L 1381.00,217.00 L 1381.00,212.00 L 1383.00,209.00 L 1383.00,206.00 L 1384.00,205.00 L 1384.00,92.00 L 1383.00,91.00 L 1368.00,91.00 L 1367.00,90.00 L 1366.00,91.00 L 1363.00,90.00 L 1361.00,92.00 L 1361.00,98.00 L 1360.00,99.00 L 1360.00,132.00 L 1361.00,133.00 L 1361.00,135.00 L 1360.00,136.00 L 1360.00,142.00 L 1361.00,143.00 L 1361.00,147.00 L 1360.00,148.00 L 1360.00,157.00 L 1361.00,158.00 L 1361.00,160.00 L 1360.00,161.00 L 1360.00,174.00 L 1361.00,175.00 L 1361.00,180.00 L 1360.00,181.00 L 1361.00,182.00 L 1361.00,184.00 L 1360.00,185.00 L 1360.00,188.00 L 1361.00,189.00 L 1361.00,191.00 L 1360.00,192.00 L 1360.00,196.00 L 1359.00,197.00 L 1359.00,201.00 L 1358.00,202.00 L 1358.00,208.00 L 1355.00,212.00 L 1355.00,215.00 L 1352.00,218.00 L 1352.00,220.00 L 1349.00,223.00 L 1349.00,224.00 L 1340.00,233.00 L 1337.00,234.00 L 1330.00,239.00 L 1327.00,239.00 L 1319.00,243.00 L 1310.00,243.00 L 1309.00,244.00 L 1295.00,244.00 L 1294.00,243.00 L 1284.00,243.00 L 1278.00,240.00 L 1273.00,239.00 L 1271.00,237.00 L 1268.00,236.00 L 1265.00,233.00 L 1261.00,231.00 L 1257.00,227.00 L 1255.00,223.00 L 1251.00,219.00 L 1251.00,217.00 L 1248.00,213.00 L 1248.00,210.00 L 1245.00,206.00 L 1245.00,198.00 L 1244.00,197.00 L 1244.00,99.00 L 1243.00,98.00 L 1243.00,95.00 L 1244.00,93.00 L 1242.00,91.00 L 1224.00,91.00 L 1223.00,90.00 Z M 1003.00,90.00 L 1001.00,93.00 L 1002.00,95.00 L 1002.00,262.00 L 1001.00,264.00 L 1004.00,266.00 L 1026.00,266.00 L 1027.00,265.00 L 1027.00,191.00 L 1030.00,188.00 L 1045.00,188.00 L 1050.00,192.00 L 1051.00,192.00 L 1059.00,199.00 L 1060.00,199.00 L 1071.00,210.00 L 1072.00,210.00 L 1083.00,220.00 L 1084.00,220.00 L 1085.00,222.00 L 1086.00,222.00 L 1093.00,229.00 L 1094.00,229.00 L 1101.00,236.00 L 1102.00,236.00 L 1103.00,238.00 L 1104.00,238.00 L 1110.00,244.00 L 1111.00,244.00 L 1119.00,252.00 L 1120.00,252.00 L 1127.00,259.00 L 1128.00,259.00 L 1130.00,262.00 L 1131.00,262.00 L 1134.00,265.00 L 1136.00,265.00 L 1137.00,266.00 L 1165.00,266.00 L 1166.00,265.00 L 1171.00,265.00 L 1171.00,263.00 L 1169.00,263.00 L 1167.00,261.00 L 1166.00,261.00 L 1164.00,259.00 L 1164.00,258.00 L 1163.00,258.00 L 1161.00,256.00 L 1161.00,255.00 L 1160.00,255.00 L 1156.00,251.00 L 1155.00,251.00 L 1153.00,248.00 L 1152.00,248.00 L 1148.00,244.00 L 1147.00,244.00 L 1143.00,240.00 L 1142.00,240.00 L 1129.00,227.00 L 1128.00,227.00 L 1121.00,221.00 L 1120.00,221.00 L 1119.00,219.00 L 1118.00,219.00 L 1114.00,215.00 L 1113.00,215.00 L 1112.00,213.00 L 1110.00,212.00 L 1104.00,206.00 L 1103.00,206.00 L 1102.00,204.00 L 1101.00,204.00 L 1098.00,201.00 L 1097.00,201.00 L 1083.00,188.00 L 1082.00,188.00 L 1079.00,185.00 L 1078.00,185.00 L 1077.00,183.00 L 1070.00,177.00 L 1070.00,174.00 L 1075.00,169.00 L 1076.00,169.00 L 1083.00,162.00 L 1084.00,162.00 L 1089.00,157.00 L 1090.00,157.00 L 1100.00,147.00 L 1101.00,147.00 L 1107.00,141.00 L 1108.00,141.00 L 1121.00,129.00 L 1122.00,129.00 L 1123.00,127.00 L 1124.00,127.00 L 1127.00,124.00 L 1128.00,124.00 L 1148.00,105.00 L 1149.00,105.00 L 1161.00,94.00 L 1162.00,94.00 L 1164.00,92.00 L 1164.00,91.00 L 1134.00,91.00 L 1133.00,90.00 L 1128.00,91.00 L 1121.00,98.00 L 1120.00,98.00 L 1116.00,102.00 L 1115.00,102.00 L 1114.00,104.00 L 1113.00,104.00 L 1107.00,110.00 L 1106.00,110.00 L 1095.00,121.00 L 1094.00,121.00 L 1087.00,128.00 L 1086.00,128.00 L 1077.00,137.00 L 1076.00,137.00 L 1074.00,140.00 L 1073.00,140.00 L 1070.00,143.00 L 1069.00,143.00 L 1049.00,162.00 L 1042.00,166.00 L 1039.00,166.00 L 1038.00,165.00 L 1036.00,165.00 L 1035.00,166.00 L 1030.00,166.00 L 1027.00,163.00 L 1027.00,91.00 L 1013.00,91.00 L 1012.00,90.00 Z M 758.00,92.00 L 758.00,264.00 L 759.00,265.00 L 763.00,265.00 L 764.00,266.00 L 765.00,265.00 L 767.00,265.00 L 768.00,266.00 L 863.00,266.00 L 864.00,265.00 L 871.00,265.00 L 872.00,264.00 L 874.00,264.00 L 878.00,262.00 L 883.00,262.00 L 886.00,260.00 L 891.00,259.00 L 895.00,256.00 L 898.00,256.00 L 901.00,253.00 L 903.00,253.00 L 910.00,247.00 L 911.00,247.00 L 924.00,234.00 L 925.00,231.00 L 927.00,230.00 L 928.00,227.00 L 931.00,224.00 L 931.00,222.00 L 934.00,217.00 L 934.00,214.00 L 937.00,209.00 L 937.00,205.00 L 938.00,204.00 L 939.00,198.00 L 940.00,197.00 L 940.00,175.00 L 941.00,174.00 L 941.00,170.00 L 940.00,169.00 L 940.00,155.00 L 939.00,154.00 L 939.00,152.00 L 937.00,148.00 L 937.00,144.00 L 934.00,140.00 L 934.00,135.00 L 931.00,132.00 L 931.00,130.00 L 929.00,128.00 L 928.00,125.00 L 924.00,121.00 L 922.00,117.00 L 916.00,111.00 L 915.00,111.00 L 907.00,104.00 L 903.00,103.00 L 900.00,100.00 L 898.00,100.00 L 894.00,97.00 L 890.00,97.00 L 885.00,94.00 L 881.00,94.00 L 880.00,93.00 L 878.00,93.00 L 874.00,91.00 L 864.00,91.00 L 863.00,90.00 L 862.00,91.00 L 821.00,91.00 L 820.00,90.00 L 771.00,90.00 L 770.00,91.00 L 767.00,91.00 L 766.00,90.00 L 763.00,90.00 L 762.00,91.00 L 759.00,91.00 Z M 786.00,113.00 L 862.00,113.00 L 863.00,114.00 L 871.00,114.00 L 877.00,117.00 L 880.00,117.00 L 884.00,120.00 L 891.00,123.00 L 895.00,127.00 L 896.00,127.00 L 897.00,129.00 L 899.00,130.00 L 899.00,131.00 L 905.00,137.00 L 906.00,140.00 L 908.00,142.00 L 908.00,144.00 L 910.00,146.00 L 911.00,148.00 L 911.00,151.00 L 914.00,156.00 L 914.00,161.00 L 915.00,162.00 L 915.00,189.00 L 914.00,190.00 L 914.00,196.00 L 913.00,197.00 L 913.00,199.00 L 911.00,203.00 L 911.00,206.00 L 909.00,208.00 L 908.00,212.00 L 905.00,215.00 L 905.00,217.00 L 902.00,219.00 L 900.00,223.00 L 893.00,230.00 L 890.00,231.00 L 884.00,236.00 L 882.00,236.00 L 881.00,237.00 L 879.00,237.00 L 877.00,239.00 L 874.00,239.00 L 873.00,240.00 L 871.00,240.00 L 867.00,242.00 L 864.00,242.00 L 863.00,243.00 L 791.00,243.00 L 790.00,242.00 L 789.00,243.00 L 786.00,243.00 L 784.00,241.00 L 784.00,155.00 L 783.00,154.00 L 783.00,152.00 L 784.00,151.00 L 784.00,120.00 L 783.00,119.00 L 783.00,117.00 Z M 596.00,90.00 L 587.00,108.00 L 587.00,110.00 L 585.00,112.00 L 585.00,114.00 L 581.00,121.00 L 581.00,123.00 L 578.00,128.00 L 578.00,130.00 L 573.00,139.00 L 573.00,141.00 L 570.00,146.00 L 570.00,148.00 L 566.00,156.00 L 564.00,158.00 L 564.00,161.00 L 561.00,166.00 L 561.00,168.00 L 558.00,172.00 L 558.00,175.00 L 556.00,177.00 L 555.00,181.00 L 551.00,188.00 L 551.00,190.00 L 546.00,199.00 L 546.00,201.00 L 543.00,206.00 L 543.00,209.00 L 540.00,212.00 L 540.00,214.00 L 536.00,221.00 L 536.00,223.00 L 534.00,225.00 L 534.00,228.00 L 531.00,232.00 L 531.00,234.00 L 527.00,241.00 L 527.00,243.00 L 525.00,245.00 L 525.00,248.00 L 523.00,250.00 L 522.00,254.00 L 519.00,258.00 L 519.00,261.00 L 517.00,263.00 L 517.00,264.00 L 519.00,266.00 L 520.00,265.00 L 522.00,266.00 L 540.00,266.00 L 541.00,265.00 L 544.00,265.00 L 544.00,263.00 L 548.00,256.00 L 548.00,254.00 L 550.00,252.00 L 550.00,250.00 L 554.00,243.00 L 554.00,240.00 L 557.00,236.00 L 557.00,234.00 L 561.00,227.00 L 561.00,225.00 L 563.00,223.00 L 567.00,215.00 L 567.00,213.00 L 572.00,203.00 L 572.00,201.00 L 578.00,190.00 L 578.00,187.00 L 580.00,185.00 L 581.00,181.00 L 583.00,179.00 L 584.00,174.00 L 586.00,172.00 L 587.00,168.00 L 592.00,160.00 L 592.00,158.00 L 600.00,142.00 L 600.00,140.00 L 603.00,135.00 L 603.00,133.00 L 606.00,128.00 L 606.00,126.00 L 608.00,124.00 L 608.00,122.00 L 611.00,119.00 L 612.00,119.00 L 615.00,122.00 L 615.00,124.00 L 622.00,138.00 L 622.00,141.00 L 625.00,145.00 L 625.00,147.00 L 629.00,153.00 L 629.00,156.00 L 632.00,161.00 L 632.00,163.00 L 634.00,165.00 L 634.00,168.00 L 637.00,173.00 L 637.00,175.00 L 640.00,179.00 L 640.00,181.00 L 644.00,188.00 L 644.00,190.00 L 646.00,192.00 L 646.00,195.00 L 649.00,200.00 L 649.00,202.00 L 651.00,204.00 L 653.00,208.00 L 653.00,210.00 L 656.00,214.00 L 656.00,217.00 L 658.00,220.00 L 658.00,222.00 L 661.00,226.00 L 661.00,228.00 L 662.00,229.00 L 662.00,231.00 L 664.00,233.00 L 665.00,238.00 L 667.00,240.00 L 667.00,242.00 L 671.00,248.00 L 671.00,252.00 L 674.00,256.00 L 674.00,259.00 L 676.00,261.00 L 677.00,265.00 L 679.00,266.00 L 700.00,266.00 L 701.00,265.00 L 705.00,265.00 L 705.00,263.00 L 703.00,261.00 L 703.00,259.00 L 696.00,245.00 L 696.00,243.00 L 693.00,239.00 L 693.00,236.00 L 690.00,233.00 L 690.00,230.00 L 687.00,225.00 L 687.00,223.00 L 685.00,221.00 L 684.00,217.00 L 681.00,214.00 L 681.00,210.00 L 678.00,206.00 L 678.00,203.00 L 675.00,200.00 L 675.00,197.00 L 672.00,192.00 L 671.00,188.00 L 669.00,186.00 L 669.00,183.00 L 666.00,180.00 L 666.00,176.00 L 663.00,173.00 L 663.00,169.00 L 661.00,167.00 L 660.00,163.00 L 657.00,159.00 L 657.00,156.00 L 654.00,152.00 L 654.00,149.00 L 652.00,147.00 L 651.00,143.00 L 649.00,140.00 L 649.00,138.00 L 642.00,125.00 L 641.00,121.00 L 639.00,119.00 L 639.00,116.00 L 636.00,111.00 L 635.00,107.00 L 633.00,105.00 L 633.00,102.00 L 631.00,100.00 L 628.00,92.00 L 626.00,92.00 L 625.00,91.00 L 612.00,91.00 L 611.00,90.00 Z M 63.00,165.00 L 63.00,237.00 L 64.00,238.00 L 66.00,238.00 L 66.00,237.00 L 68.00,235.00 L 69.00,235.00 L 76.00,228.00 L 76.00,227.00 L 81.00,222.00 L 82.00,222.00 L 85.00,219.00 L 85.00,218.00 L 113.00,190.00 L 114.00,190.00 L 114.00,189.00 L 126.00,177.00 L 126.00,176.00 L 130.00,172.00 L 131.00,172.00 L 144.00,159.00 L 144.00,158.00 L 146.00,157.00 L 150.00,153.00 L 150.00,152.00 L 154.00,148.00 L 155.00,148.00 L 166.00,137.00 L 166.00,136.00 L 170.00,132.00 L 171.00,132.00 L 171.00,131.00 L 192.00,111.00 L 193.00,109.00 L 194.00,109.00 L 194.00,108.00 L 204.00,98.00 L 207.00,97.00 L 209.00,99.00 L 209.00,100.00 L 214.00,105.00 L 215.00,105.00 L 223.00,113.00 L 223.00,114.00 L 224.00,114.00 L 229.00,119.00 L 229.00,120.00 L 267.00,158.00 L 268.00,158.00 L 278.00,168.00 L 278.00,169.00 L 280.00,170.00 L 280.00,171.00 L 302.00,193.00 L 302.00,194.00 L 340.00,232.00 L 341.00,232.00 L 342.00,234.00 L 343.00,234.00 L 347.00,239.00 L 349.00,238.00 L 349.00,164.00 L 344.00,160.00 L 344.00,159.00 L 311.00,126.00 L 311.00,125.00 L 308.00,122.00 L 307.00,122.00 L 285.00,100.00 L 285.00,99.00 L 283.00,98.00 L 282.00,96.00 L 276.00,90.00 L 275.00,90.00 L 272.00,87.00 L 272.00,86.00 L 269.00,83.00 L 268.00,83.00 L 267.00,81.00 L 266.00,81.00 L 265.00,79.00 L 242.00,56.00 L 241.00,56.00 L 240.00,54.00 L 206.00,20.00 L 204.00,20.00 L 203.00,22.00 L 201.00,24.00 L 200.00,24.00 L 200.00,25.00 L 198.00,26.00 L 197.00,28.00 L 195.00,29.00 L 194.00,31.00 L 192.00,32.00 L 191.00,34.00 L 155.00,70.00 L 155.00,71.00 L 150.00,76.00 L 149.00,76.00 L 144.00,81.00 L 144.00,82.00 L 142.00,84.00 L 141.00,84.00 L 138.00,87.00 L 138.00,88.00 L 121.00,105.00 L 120.00,105.00 L 116.00,109.00 L 116.00,110.00 L 86.00,140.00 L 86.00,141.00 L 81.00,146.00 L 80.00,146.00 L 80.00,147.00 L 78.00,148.00 L 74.00,152.00 L 74.00,153.00 L 72.00,154.00 L 64.00,162.00 L 64.00,164.00 Z" fill="#071B34" fill-rule="evenodd"></path><path d="M 205.00,181.00 L 203.00,182.00 L 203.00,183.00 L 161.00,225.00 L 162.00,227.00 L 202.00,267.00 L 203.00,269.00 L 207.00,270.00 L 244.00,233.00 L 244.00,232.00 L 250.00,226.00 L 250.00,225.00 L 223.00,198.00 L 223.00,197.00 L 222.00,197.00 L 211.00,186.00 L 211.00,185.00 L 207.00,181.00 Z" fill="#C77716" fill-rule="evenodd"></path><path d="M 1507.00,328.00 L 1506.00,330.00 L 1507.00,334.00 L 1509.00,335.00 L 1519.00,334.00 L 1521.00,336.00 L 1521.00,365.00 L 1522.00,367.00 L 1526.00,368.00 L 1528.00,366.00 L 1528.00,336.00 L 1531.00,334.00 L 1541.00,335.00 L 1543.00,334.00 L 1543.00,329.00 L 1542.00,328.00 Z M 1347.00,328.00 L 1345.00,330.00 L 1345.00,356.00 L 1348.00,360.00 L 1348.00,361.00 L 1354.00,366.00 L 1356.00,366.00 L 1360.00,368.00 L 1367.00,368.00 L 1368.00,367.00 L 1371.00,367.00 L 1375.00,365.00 L 1380.00,360.00 L 1381.00,356.00 L 1382.00,355.00 L 1382.00,329.00 L 1381.00,328.00 L 1376.00,328.00 L 1375.00,329.00 L 1375.00,353.00 L 1374.00,354.00 L 1374.00,356.00 L 1371.00,359.00 L 1367.00,361.00 L 1359.00,361.00 L 1357.00,360.00 L 1353.00,356.00 L 1352.00,354.00 L 1352.00,330.00 L 1350.00,328.00 Z M 1067.00,330.00 L 1063.00,329.00 L 1062.00,328.00 L 1040.00,328.00 L 1039.00,329.00 L 1039.00,366.00 L 1040.00,367.00 L 1045.00,367.00 L 1045.00,355.00 L 1047.00,353.00 L 1062.00,353.00 L 1063.00,352.00 L 1065.00,352.00 L 1069.00,349.00 L 1069.00,348.00 L 1072.00,344.00 L 1072.00,337.00 L 1070.00,333.00 Z M 1045.00,336.00 L 1047.00,334.00 L 1060.00,334.00 L 1064.00,337.00 L 1065.00,340.00 L 1064.00,341.00 L 1064.00,343.00 L 1061.00,346.00 L 1058.00,346.00 L 1057.00,347.00 L 1047.00,347.00 L 1045.00,344.00 Z M 860.00,328.00 L 858.00,331.00 L 858.00,333.00 L 856.00,336.00 L 855.00,341.00 L 850.00,351.00 L 850.00,353.00 L 847.00,359.00 L 847.00,361.00 L 845.00,364.00 L 845.00,366.00 L 846.00,367.00 L 850.00,367.00 L 852.00,366.00 L 853.00,361.00 L 856.00,359.00 L 869.00,359.00 L 872.00,361.00 L 873.00,365.00 L 875.00,367.00 L 877.00,367.00 L 878.00,368.00 L 880.00,367.00 L 880.00,362.00 L 877.00,357.00 L 876.00,352.00 L 870.00,340.00 L 870.00,338.00 L 868.00,335.00 L 867.00,330.00 L 865.00,328.00 Z M 863.00,339.00 L 865.00,341.00 L 865.00,344.00 L 868.00,349.00 L 868.00,351.00 L 867.00,352.00 L 859.00,352.00 L 858.00,351.00 L 858.00,348.00 L 860.00,346.00 L 860.00,343.00 Z M 595.00,328.00 L 593.00,331.00 L 593.00,333.00 L 594.00,334.00 L 594.00,341.00 L 593.00,342.00 L 593.00,344.00 L 594.00,345.00 L 594.00,366.00 L 595.00,367.00 L 599.00,367.00 L 601.00,364.00 L 601.00,339.00 L 600.00,338.00 L 601.00,331.00 L 599.00,328.00 Z M 517.00,328.00 L 516.00,329.00 L 516.00,365.00 L 518.00,367.00 L 538.00,367.00 L 539.00,366.00 L 541.00,366.00 L 545.00,364.00 L 551.00,357.00 L 551.00,355.00 L 553.00,351.00 L 553.00,343.00 L 552.00,342.00 L 552.00,340.00 L 550.00,336.00 L 545.00,331.00 L 541.00,329.00 L 539.00,329.00 L 538.00,328.00 Z M 525.00,334.00 L 533.00,334.00 L 534.00,335.00 L 538.00,335.00 L 540.00,336.00 L 545.00,341.00 L 545.00,343.00 L 546.00,344.00 L 546.00,351.00 L 545.00,352.00 L 544.00,356.00 L 539.00,360.00 L 536.00,360.00 L 535.00,361.00 L 525.00,361.00 L 523.00,359.00 L 523.00,336.00 Z M 1591.00,328.00 L 1587.00,330.00 L 1585.00,332.00 L 1583.00,336.00 L 1583.00,343.00 L 1584.00,345.00 L 1587.00,348.00 L 1589.00,348.00 L 1593.00,350.00 L 1599.00,350.00 L 1600.00,351.00 L 1603.00,351.00 L 1607.00,354.00 L 1608.00,357.00 L 1607.00,359.00 L 1604.00,361.00 L 1593.00,361.00 L 1591.00,360.00 L 1588.00,356.00 L 1584.00,356.00 L 1582.00,358.00 L 1582.00,360.00 L 1585.00,364.00 L 1586.00,364.00 L 1590.00,367.00 L 1594.00,367.00 L 1595.00,368.00 L 1603.00,368.00 L 1604.00,367.00 L 1607.00,367.00 L 1609.00,365.00 L 1610.00,365.00 L 1614.00,360.00 L 1615.00,354.00 L 1613.00,350.00 L 1610.00,347.00 L 1606.00,345.00 L 1597.00,344.00 L 1596.00,343.00 L 1592.00,342.00 L 1590.00,340.00 L 1590.00,337.00 L 1594.00,334.00 L 1603.00,334.00 L 1607.00,338.00 L 1610.00,339.00 L 1612.00,338.00 L 1612.00,333.00 L 1609.00,330.00 L 1603.00,327.00 L 1594.00,327.00 L 1593.00,328.00 Z M 1433.00,330.00 L 1426.00,337.00 L 1425.00,341.00 L 1424.00,342.00 L 1424.00,345.00 L 1423.00,346.00 L 1425.00,356.00 L 1429.00,361.00 L 1429.00,362.00 L 1433.00,365.00 L 1437.00,367.00 L 1440.00,367.00 L 1441.00,368.00 L 1449.00,368.00 L 1450.00,367.00 L 1456.00,366.00 L 1458.00,364.00 L 1459.00,364.00 L 1464.00,359.00 L 1465.00,357.00 L 1465.00,355.00 L 1464.00,354.00 L 1460.00,354.00 L 1455.00,359.00 L 1451.00,361.00 L 1441.00,361.00 L 1440.00,360.00 L 1436.00,359.00 L 1432.00,355.00 L 1431.00,353.00 L 1431.00,343.00 L 1432.00,341.00 L 1437.00,336.00 L 1441.00,334.00 L 1449.00,334.00 L 1450.00,335.00 L 1452.00,335.00 L 1461.00,342.00 L 1463.00,342.00 L 1465.00,340.00 L 1464.00,336.00 L 1459.00,331.00 L 1453.00,328.00 L 1450.00,328.00 L 1449.00,327.00 L 1441.00,327.00 L 1440.00,328.00 L 1437.00,328.00 Z M 1268.00,328.00 L 1267.00,330.00 L 1267.00,365.00 L 1269.00,367.00 L 1289.00,367.00 L 1290.00,366.00 L 1293.00,366.00 L 1295.00,364.00 L 1296.00,364.00 L 1302.00,358.00 L 1304.00,354.00 L 1304.00,350.00 L 1305.00,349.00 L 1305.00,344.00 L 1300.00,334.00 L 1295.00,330.00 L 1291.00,329.00 L 1290.00,328.00 L 1272.00,328.00 L 1271.00,327.00 L 1270.00,328.00 Z M 1277.00,334.00 L 1279.00,334.00 L 1280.00,335.00 L 1282.00,335.00 L 1283.00,334.00 L 1284.00,335.00 L 1290.00,335.00 L 1292.00,336.00 L 1296.00,340.00 L 1297.00,342.00 L 1297.00,353.00 L 1296.00,355.00 L 1292.00,359.00 L 1290.00,360.00 L 1285.00,360.00 L 1284.00,361.00 L 1282.00,360.00 L 1277.00,361.00 L 1275.00,359.00 L 1275.00,336.00 Z M 1202.00,327.00 L 1201.00,328.00 L 1198.00,328.00 L 1194.00,330.00 L 1189.00,334.00 L 1185.00,341.00 L 1185.00,344.00 L 1184.00,345.00 L 1184.00,352.00 L 1185.00,353.00 L 1185.00,355.00 L 1187.00,359.00 L 1195.00,366.00 L 1197.00,366.00 L 1198.00,367.00 L 1202.00,367.00 L 1203.00,368.00 L 1209.00,368.00 L 1210.00,367.00 L 1216.00,366.00 L 1219.00,363.00 L 1220.00,363.00 L 1224.00,358.00 L 1225.00,354.00 L 1226.00,353.00 L 1226.00,342.00 L 1224.00,339.00 L 1224.00,337.00 L 1217.00,330.00 L 1213.00,329.00 L 1212.00,328.00 L 1210.00,328.00 L 1209.00,327.00 Z M 1198.00,335.00 L 1200.00,334.00 L 1210.00,334.00 L 1214.00,336.00 L 1218.00,340.00 L 1219.00,344.00 L 1220.00,345.00 L 1220.00,349.00 L 1219.00,350.00 L 1219.00,352.00 L 1217.00,356.00 L 1214.00,359.00 L 1210.00,361.00 L 1201.00,361.00 L 1197.00,359.00 L 1193.00,355.00 L 1192.00,351.00 L 1191.00,350.00 L 1191.00,345.00 L 1192.00,344.00 L 1193.00,340.00 Z M 1113.00,328.00 L 1112.00,329.00 L 1112.00,366.00 L 1113.00,367.00 L 1117.00,367.00 L 1119.00,365.00 L 1119.00,354.00 L 1122.00,352.00 L 1126.00,352.00 L 1127.00,353.00 L 1129.00,353.00 L 1131.00,355.00 L 1133.00,360.00 L 1138.00,367.00 L 1140.00,367.00 L 1141.00,368.00 L 1144.00,367.00 L 1144.00,364.00 L 1143.00,362.00 L 1140.00,359.00 L 1139.00,356.00 L 1137.00,354.00 L 1137.00,352.00 L 1143.00,347.00 L 1144.00,343.00 L 1145.00,342.00 L 1145.00,338.00 L 1144.00,337.00 L 1143.00,333.00 L 1136.00,328.00 L 1118.00,328.00 L 1117.00,327.00 Z M 1119.00,336.00 L 1121.00,334.00 L 1127.00,334.00 L 1128.00,335.00 L 1132.00,334.00 L 1133.00,335.00 L 1135.00,335.00 L 1137.00,338.00 L 1137.00,343.00 L 1133.00,346.00 L 1120.00,346.00 L 1119.00,345.00 Z M 920.00,328.00 L 919.00,329.00 L 919.00,365.00 L 921.00,367.00 L 945.00,367.00 L 946.00,366.00 L 946.00,363.00 L 944.00,361.00 L 928.00,361.00 L 925.00,358.00 L 926.00,356.00 L 926.00,330.00 L 925.00,328.00 L 923.00,327.00 Z M 776.00,327.00 L 774.00,329.00 L 774.00,333.00 L 776.00,335.00 L 778.00,335.00 L 779.00,334.00 L 787.00,334.00 L 789.00,336.00 L 789.00,366.00 L 790.00,367.00 L 794.00,367.00 L 795.00,366.00 L 795.00,344.00 L 796.00,343.00 L 795.00,337.00 L 798.00,334.00 L 800.00,335.00 L 809.00,335.00 L 811.00,333.00 L 811.00,330.00 L 810.00,328.00 L 808.00,327.00 L 806.00,327.00 L 805.00,328.00 L 801.00,328.00 L 800.00,327.00 L 798.00,328.00 L 779.00,328.00 L 778.00,327.00 Z M 730.00,327.00 L 729.00,328.00 L 727.00,328.00 L 726.00,330.00 L 726.00,364.00 L 728.00,367.00 L 732.00,367.00 L 733.00,366.00 L 733.00,353.00 L 734.00,352.00 L 734.00,341.00 L 733.00,340.00 L 733.00,335.00 L 734.00,334.00 L 734.00,332.00 L 733.00,331.00 L 733.00,329.00 Z M 660.00,327.00 L 659.00,328.00 L 656.00,328.00 L 652.00,330.00 L 647.00,334.00 L 642.00,344.00 L 642.00,352.00 L 643.00,353.00 L 644.00,357.00 L 649.00,363.00 L 657.00,367.00 L 665.00,368.00 L 666.00,367.00 L 670.00,367.00 L 671.00,366.00 L 673.00,366.00 L 677.00,363.00 L 678.00,363.00 L 682.00,359.00 L 684.00,355.00 L 684.00,353.00 L 685.00,352.00 L 685.00,348.00 L 684.00,346.00 L 664.00,346.00 L 663.00,347.00 L 663.00,350.00 L 665.00,352.00 L 675.00,352.00 L 677.00,354.00 L 677.00,355.00 L 673.00,359.00 L 671.00,360.00 L 668.00,360.00 L 667.00,361.00 L 659.00,361.00 L 658.00,360.00 L 656.00,360.00 L 651.00,355.00 L 650.00,351.00 L 649.00,350.00 L 649.00,345.00 L 650.00,344.00 L 650.00,342.00 L 651.00,340.00 L 656.00,335.00 L 658.00,335.00 L 659.00,334.00 L 669.00,334.00 L 673.00,337.00 L 674.00,337.00 L 675.00,339.00 L 678.00,341.00 L 682.00,340.00 L 682.00,336.00 L 676.00,330.00 L 672.00,329.00 L 671.00,328.00 L 668.00,328.00 L 667.00,327.00 Z M 251.00,303.00 L 292.00,344.00 L 292.00,345.00 L 293.00,345.00 L 295.00,347.00 L 295.00,348.00 L 296.00,348.00 L 298.00,350.00 L 298.00,351.00 L 299.00,351.00 L 301.00,353.00 L 301.00,354.00 L 302.00,354.00 L 304.00,356.00 L 304.00,357.00 L 305.00,357.00 L 307.00,359.00 L 307.00,360.00 L 308.00,360.00 L 310.00,362.00 L 310.00,363.00 L 311.00,363.00 L 312.00,365.00 L 315.00,367.00 L 388.00,367.00 L 389.00,366.00 L 389.00,364.00 L 385.00,360.00 L 384.00,360.00 L 382.00,358.00 L 382.00,357.00 L 328.00,303.00 L 327.00,303.00 L 327.00,304.00 L 382.00,359.00 L 382.00,360.00 L 383.00,360.00 L 387.00,364.00 L 386.00,366.00 L 384.00,366.00 L 383.00,365.00 L 381.00,366.00 L 322.00,366.00 L 321.00,365.00 L 320.00,366.00 L 316.00,366.00 L 314.00,365.00 L 253.00,303.00 Z M 158.00,303.00 L 156.00,303.00 L 146.00,313.00 L 145.00,313.00 L 145.00,314.00 L 143.00,316.00 L 142.00,316.00 L 142.00,317.00 L 140.00,319.00 L 139.00,319.00 L 139.00,320.00 L 94.00,365.00 L 92.00,366.00 L 90.00,366.00 L 89.00,365.00 L 86.00,365.00 L 85.00,366.00 L 38.00,366.00 L 37.00,365.00 L 36.00,366.00 L 28.00,366.00 L 27.00,365.00 L 26.00,366.00 L 23.00,366.00 L 22.00,364.00 L 30.00,356.00 L 30.00,355.00 L 36.00,349.00 L 37.00,349.00 L 57.00,329.00 L 57.00,328.00 L 83.00,303.00 L 80.00,303.00 L 79.00,305.00 L 77.00,307.00 L 76.00,307.00 L 76.00,308.00 L 74.00,309.00 L 55.00,328.00 L 55.00,329.00 L 36.00,348.00 L 35.00,348.00 L 30.00,353.00 L 29.00,355.00 L 28.00,355.00 L 28.00,356.00 L 20.00,364.00 L 20.00,366.00 L 21.00,367.00 L 94.00,367.00 L 136.00,325.00 L 136.00,324.00 Z" fill="#87909A" fill-rule="evenodd"></path>
</svg>