<svg xmlns="http://www.w3.org/2000/svg" viewBox="0 0 280 280" width="280" height="280">
  <rect width="280" height="280" fill="#0E2530"/>
  <circle cx="140" cy="140" r="128" fill="none" stroke="#E8E0D0" stroke-width="1.5"/>
  <circle cx="140" cy="140" r="120" fill="none" stroke="#E8E0D0" stroke-width="0.4" opacity="0.5"/>
  <g stroke="#E8E0D0" stroke-width="0.8">
    <line x1="12" y1="140" x2="28" y2="140"/>
    <line x1="252" y1="140" x2="268" y2="140"/>
  </g>
  <g stroke="#E8E0D0" stroke-width="0.4" opacity="0.6">
    <line x1="140" y1="14" x2="140" y2="22" transform="rotate(30 140 140)"/>
    <line x1="140" y1="14" x2="140" y2="22" transform="rotate(60 140 140)"/>
    <line x1="140" y1="14" x2="140" y2="22" transform="rotate(120 140 140)"/>
    <line x1="140" y1="14" x2="140" y2="22" transform="rotate(150 140 140)"/>
    <line x1="140" y1="14" x2="140" y2="22" transform="rotate(210 140 140)"/>
    <line x1="140" y1="14" x2="140" y2="22" transform="rotate(240 140 140)"/>
    <line x1="140" y1="14" x2="140" y2="22" transform="rotate(300 140 140)"/>
    <line x1="140" y1="14" x2="140" y2="22" transform="rotate(330 140 140)"/>
  </g>
  <line x1="140" y1="50" x2="140" y2="230" stroke="#B98149" stroke-width="1.2"/>
  <circle cx="140" cy="92" r="6" fill="#B98149"/>
  <circle cx="140" cy="188" r="6" fill="#B98149"/>
  <line x1="44" y1="140" x2="236" y2="140" stroke="#E8E0D0" stroke-width="0.4" opacity="0.5"/>
  <circle cx="140" cy="140" r="2" fill="#E8E0D0"/>
  <polygon points="140,50 134,62 146,62" fill="#B98149"/>
  <defs>
    <path id="topArc" d="M 20 140 A 120 120 0 0 1 260 140"/>
    <path id="botArc" d="M 260 140 A 120 120 0 0 1 20 140"/>
  </defs>
  <text font-family="IBM Plex Mono, monospace" font-size="9" fill="#E8E0D0" letter-spacing="0.32em">
    <textPath href="#topArc" startOffset="50%" text-anchor="middle">— OLACORE · MERIDIANO SUR —</textPath>
  </text>
  <text font-family="IBM Plex Mono, monospace" font-size="8" fill="#B98149" letter-spacing="0.36em">
    <textPath href="#botArc" startOffset="50%" text-anchor="middle">CARAMPANGUE · PUERTO MONTT</textPath>
  </text>
</svg>
